<?xml version="1.0"?>
<svg xmlns="http://www.w3.org/2000/svg" viewBox="0 0 64 64" width="512" height="512"><g id="Gear-2" data-name="Gear"><path d="M41.3,46.942a1,1,0,0,0,1.307-.093l4.243-4.243a1,1,0,0,0,.093-1.307l-2.364-3.152a14,14,0,0,0,.657-1.6l3.907-.558A1,1,0,0,0,50,35V29a1,1,0,0,0-.858-.99l-3.907-.558a14,14,0,0,0-.657-1.6L46.942,22.7a1,1,0,0,0-.093-1.307l-4.243-4.243a1,1,0,0,0-1.307-.093l-3.152,2.364a14,14,0,0,0-1.6-.657l-.558-3.907A1,1,0,0,0,35,14H29a1,1,0,0,0-.99.858l-.558,3.907a14,14,0,0,0-1.6.657L22.7,17.058a1,1,0,0,0-1.307.093l-4.243,4.243a1,1,0,0,0-.093,1.307l2.364,3.152a14,14,0,0,0-.657,1.6l-3.907.558A1,1,0,0,0,14,29v6a1,1,0,0,0,.858.99l3.907.558a14,14,0,0,0,.657,1.6L17.058,41.3a1,1,0,0,0,.093,1.307l4.243,4.243a1,1,0,0,0,1.307.093l3.152-2.364a14,14,0,0,0,1.6.657l.558,3.907A1,1,0,0,0,29,50h6a1,1,0,0,0,.99-.858l.558-3.907a14,14,0,0,0,1.6-.657Zm-5.932-3.43a1,1,0,0,0-.71.818L34.133,48H29.867l-.524-3.67a1,1,0,0,0-.71-.818,11.939,11.939,0,0,1-2.4-.987,1,1,0,0,0-1.081.077l-2.961,2.22-3.016-3.016,2.22-2.961a1,1,0,0,0,.077-1.081,11.939,11.939,0,0,1-.987-2.4,1,1,0,0,0-.818-.71L16,34.133V29.867l3.67-.524a1,1,0,0,0,.818-.71,11.939,11.939,0,0,1,.987-2.4,1,1,0,0,0-.077-1.081l-2.22-2.961,3.016-3.016,2.961,2.22a1,1,0,0,0,1.081.077,11.939,11.939,0,0,1,2.4-.987,1,1,0,0,0,.71-.818L29.867,16h4.266l.524,3.67a1,1,0,0,0,.71.818,11.939,11.939,0,0,1,2.4.987,1,1,0,0,0,1.081-.077l2.961-2.22,3.016,3.016L42.6,25.155a1,1,0,0,0-.077,1.081,11.939,11.939,0,0,1,.987,2.4,1,1,0,0,0,.818.71l3.67.524v4.266l-3.67.524a1,1,0,0,0-.818.71,11.939,11.939,0,0,1-.987,2.4,1,1,0,0,0,.077,1.081l2.22,2.961-3.016,3.016L38.845,42.6a1,1,0,0,0-1.081-.077A11.939,11.939,0,0,1,35.367,43.512Z"/><rect x="31" y="18" width="2" height="2"/><rect x="21.808" y="21.808" width="2" height="2" transform="translate(-9.447 22.808) rotate(-45)"/><rect x="18" y="31" width="2" height="2"/><rect x="21.808" y="40.192" width="2" height="2" transform="translate(-22.447 28.192) rotate(-45)"/><rect x="31" y="44" width="2" height="2"/><rect x="40.192" y="40.192" width="2" height="2" transform="translate(-17.062 41.192) rotate(-45)"/><rect x="44" y="31" width="2" height="2"/><rect x="40.192" y="21.808" width="2" height="2" transform="translate(-4.062 35.808) rotate(-45)"/><path d="M32,24a8,8,0,1,0,8,8A8.009,8.009,0,0,0,32,24Zm0,14a6,6,0,1,1,6-6A6.006,6.006,0,0,1,32,38Z"/><rect x="31" y="10" width="2" height="2"/><rect x="16.151" y="16.151" width="2" height="2" transform="translate(-7.104 17.151) rotate(-45)"/><rect x="10" y="31" width="2" height="2"/><rect x="16.151" y="45.849" width="2" height="2" transform="translate(-28.104 25.849) rotate(-45)"/><rect x="31" y="52" width="2" height="2"/><rect x="45.849" y="45.849" width="2" height="2" transform="translate(-19.406 46.849) rotate(-45)"/><rect x="52" y="31" width="2" height="2"/><rect x="45.849" y="16.151" width="2" height="2" transform="translate(1.594 38.151) rotate(-45)"/><path d="M34.311,4.1l1.4-1.4L34.293,1.293l-3,3a1,1,0,0,0,0,1.414l3,3,1.414-1.414L34.54,6.126a26,26,0,0,1,2.225,51.438l.364,1.967A28,28,0,0,0,34.311,4.1Z"/><path d="M29.707,55.293l-1.414,1.414,1.167,1.167A26,26,0,0,1,28.154,6.282L27.861,4.3A28,28,0,0,0,29.689,59.9l-1.4,1.4,1.414,1.414,3-3a1,1,0,0,0,0-1.414Z"/></g></svg>
