<svg width="58" height="33" viewBox="0 0 58 33" fill="none" xmlns="http://www.w3.org/2000/svg">
<circle cx="15.8594" cy="9.96875" r="9.96875" fill="black"/>
<circle cx="41.6875" cy="9.96875" r="9.96875" fill="black"/>
<rect y="9.51562" width="58" height="1.13281" rx="0.566406" fill="black"/>
<path d="M9.903 26.233L9.329 26.149V25.799H12.892L12.99 26.884H12.591L12.388 26.205L10.652 26.163V28.137L11.821 28.116L11.919 27.535H12.304V29.145H11.919L11.821 28.543L10.652 28.522V30.608L12.626 30.538L12.997 29.656L13.41 29.782L13.207 31H9.322V30.657L9.903 30.587V26.233ZM14.4416 32.743C14.3622 32.743 14.2829 32.7383 14.2036 32.729C14.1289 32.7197 14.0752 32.7057 14.0426 32.687V32.078C14.0706 32.0967 14.1242 32.1107 14.2036 32.12C14.2876 32.1293 14.3669 32.134 14.4416 32.134C14.6656 32.134 14.8616 32.0547 15.0296 31.896C15.2022 31.742 15.3679 31.4433 15.5266 31H15.1906L13.8606 27.535L13.5386 27.444V27.115H15.2256V27.444L14.6866 27.528L15.3726 29.593L15.6946 30.615L15.9956 29.586L16.6186 27.528L16.1496 27.444V27.115H17.5566V27.444L17.2066 27.528C16.5206 29.628 16.1169 30.8203 15.9956 31.105C15.8369 31.5063 15.6922 31.819 15.5616 32.043C15.4309 32.2717 15.2769 32.4443 15.0996 32.561C14.9222 32.6823 14.7029 32.743 14.4416 32.743ZM19.6024 31.077C19.0378 31.077 18.6061 30.8927 18.3074 30.524C18.0134 30.1553 17.8664 29.663 17.8664 29.047C17.8664 28.641 17.9434 28.284 18.0974 27.976C18.2514 27.668 18.4661 27.43 18.7414 27.262C19.0214 27.094 19.3388 27.01 19.6934 27.01C20.1274 27.01 20.4634 27.1313 20.7014 27.374C20.9441 27.612 21.0724 27.955 21.0864 28.403C21.0864 28.6877 21.0701 28.9047 21.0374 29.054H18.6294C18.6388 29.516 18.7461 29.8893 18.9514 30.174C19.1568 30.454 19.4484 30.594 19.8264 30.594C20.0131 30.594 20.2068 30.5613 20.4074 30.496C20.6128 30.426 20.7714 30.3443 20.8834 30.251L21.0164 30.559C20.8811 30.699 20.6804 30.8203 20.4144 30.923C20.1484 31.0257 19.8778 31.077 19.6024 31.077ZM20.3164 28.683C20.3304 28.585 20.3374 28.4847 20.3374 28.382C20.3328 28.0787 20.2674 27.8407 20.1414 27.668C20.0201 27.4907 19.8264 27.402 19.5604 27.402C19.2898 27.402 19.0728 27.5 18.9094 27.696C18.7508 27.892 18.6598 28.221 18.6364 28.683H20.3164ZM23.9512 26.233L23.4052 26.149V25.799H24.3362C24.5042 25.799 24.6698 25.792 24.8332 25.778C25.0852 25.7593 25.3232 25.75 25.5472 25.75C26.2238 25.7547 26.7022 25.8807 26.9822 26.128C27.2622 26.3753 27.4022 26.7487 27.4022 27.248C27.4022 27.6213 27.3158 27.9457 27.1432 28.221C26.9705 28.4963 26.7302 28.7063 26.4222 28.851C26.1188 28.9957 25.7688 29.068 25.3722 29.068C25.2368 29.068 25.0992 29.0657 24.9592 29.061C24.8192 29.0517 24.7328 29.0447 24.7002 29.04V30.58L25.6592 30.657V31H23.3702V30.657L23.9512 30.587V26.233ZM24.7002 28.655C24.8308 28.6783 25.0548 28.69 25.3722 28.69C25.7408 28.69 26.0395 28.578 26.2682 28.354C26.5015 28.13 26.6182 27.7637 26.6182 27.255C26.6182 26.8537 26.5178 26.5667 26.3172 26.394C26.1165 26.2167 25.8038 26.128 25.3792 26.128C25.2298 26.128 25.0712 26.1373 24.9032 26.156C24.8005 26.1653 24.7328 26.17 24.7002 26.17V28.655ZM27.9091 30.657L28.4341 30.615V27.654L27.9301 27.528V27.15L28.8961 27.024H28.9101L29.0641 27.15V27.276L29.0431 27.822H29.0641C29.1107 27.7427 29.1947 27.64 29.3161 27.514C29.4374 27.388 29.5937 27.2737 29.7851 27.171C29.9764 27.0637 30.1841 27.01 30.4081 27.01C30.5014 27.01 30.5784 27.0217 30.6391 27.045V27.829C30.6064 27.8057 30.5527 27.7847 30.4781 27.766C30.4081 27.7427 30.3287 27.731 30.2401 27.731C29.8527 27.731 29.4934 27.85 29.1621 28.088V30.608L30.0511 30.664V31H27.9091V30.657ZM31.1011 29.047C31.1011 28.627 31.1875 28.263 31.3601 27.955C31.5328 27.647 31.7591 27.4137 32.0391 27.255C32.3238 27.0917 32.6271 27.01 32.9491 27.01C33.5371 27.01 33.9781 27.1967 34.2721 27.57C34.5708 27.9433 34.7201 28.4333 34.7201 29.04C34.7201 29.4647 34.6338 29.831 34.4611 30.139C34.2885 30.447 34.0598 30.6803 33.7751 30.839C33.4951 30.9977 33.1941 31.077 32.8721 31.077C32.2841 31.077 31.8408 30.8903 31.5421 30.517C31.2481 30.1437 31.1011 29.6537 31.1011 29.047ZM32.9141 30.678C33.2361 30.678 33.4835 30.545 33.6561 30.279C33.8288 30.013 33.9151 29.6187 33.9151 29.096C33.9151 28.578 33.8358 28.1673 33.6771 27.864C33.5185 27.5607 33.2641 27.409 32.9141 27.409C32.5921 27.409 32.3425 27.542 32.1651 27.808C31.9925 28.074 31.9061 28.4683 31.9061 28.991C31.9061 29.509 31.9878 29.9197 32.1511 30.223C32.3145 30.5263 32.5688 30.678 32.9141 30.678ZM37.0329 32.89C36.4356 32.89 36.0016 32.7943 35.7309 32.603C35.4649 32.4163 35.3319 32.1573 35.3319 31.826C35.3319 31.6207 35.3949 31.4317 35.5209 31.259C35.6516 31.0863 35.8056 30.9557 35.9829 30.867C35.7683 30.7457 35.6609 30.5497 35.6609 30.279C35.6609 30.111 35.7099 29.9523 35.8079 29.803C35.9059 29.6537 36.0343 29.5393 36.1929 29.46C35.9596 29.3573 35.7799 29.2103 35.6539 29.019C35.5326 28.8277 35.4719 28.6013 35.4719 28.34C35.4719 28.0693 35.5466 27.8337 35.6959 27.633C35.8499 27.4323 36.0506 27.2783 36.2979 27.171C36.5499 27.0637 36.8159 27.01 37.0959 27.01C37.5673 27.01 37.9359 27.108 38.2019 27.304C38.2719 27.234 38.3793 27.1663 38.5239 27.101C38.6686 27.0357 38.8226 27.003 38.9859 27.003H39.2239V27.619H38.4539C38.5659 27.7917 38.6219 27.9923 38.6219 28.221C38.6219 28.4963 38.5519 28.7413 38.4119 28.956C38.2766 29.166 38.0853 29.3293 37.8379 29.446C37.5953 29.5627 37.3199 29.621 37.0119 29.621C36.8113 29.621 36.6316 29.6 36.4729 29.558C36.4076 29.6233 36.3539 29.6957 36.3119 29.775C36.2699 29.8543 36.2489 29.9313 36.2489 30.006C36.2489 30.174 36.3049 30.2907 36.4169 30.356C36.5289 30.4167 36.7296 30.447 37.0189 30.447H37.8099C38.2626 30.447 38.5986 30.5333 38.8179 30.706C39.0373 30.8787 39.1469 31.1237 39.1469 31.441C39.1469 31.707 39.0513 31.9497 38.8599 32.169C38.6686 32.393 38.4096 32.568 38.0829 32.694C37.7609 32.8247 37.4109 32.89 37.0329 32.89ZM37.0819 29.236C37.6139 29.236 37.8799 28.921 37.8799 28.291C37.8799 27.9783 37.8099 27.7497 37.6699 27.605C37.5346 27.4557 37.3293 27.381 37.0539 27.381C36.7973 27.381 36.5943 27.4533 36.4449 27.598C36.2956 27.738 36.2209 27.9643 36.2209 28.277C36.2209 28.571 36.2909 28.8043 36.4309 28.977C36.5756 29.1497 36.7926 29.236 37.0819 29.236ZM37.0959 32.484C37.3246 32.484 37.5393 32.449 37.7399 32.379C37.9453 32.3137 38.1109 32.2133 38.2369 32.078C38.3629 31.9473 38.4259 31.7933 38.4259 31.616C38.4259 31.406 38.3699 31.252 38.2579 31.154C38.1459 31.0607 37.9289 31.014 37.6069 31.014H36.7809C36.5943 31.014 36.4473 31.0023 36.3399 30.979C36.1486 31.189 36.0529 31.4247 36.0529 31.686C36.0529 31.9473 36.1323 32.1457 36.2909 32.281C36.4496 32.4163 36.7179 32.484 37.0959 32.484ZM39.6259 30.657L40.1509 30.615V27.654L39.6469 27.528V27.15L40.6129 27.024H40.6269L40.7809 27.15V27.276L40.7599 27.822H40.7809C40.8275 27.7427 40.9115 27.64 41.0329 27.514C41.1542 27.388 41.3105 27.2737 41.5019 27.171C41.6932 27.0637 41.9009 27.01 42.1249 27.01C42.2182 27.01 42.2952 27.0217 42.3559 27.045V27.829C42.3232 27.8057 42.2695 27.7847 42.1949 27.766C42.1249 27.7427 42.0455 27.731 41.9569 27.731C41.5695 27.731 41.2102 27.85 40.8789 28.088V30.608L41.7679 30.664V31H39.6259V30.657ZM44.5399 31.077C43.9753 31.077 43.5436 30.8927 43.2449 30.524C42.9509 30.1553 42.8039 29.663 42.8039 29.047C42.8039 28.641 42.8809 28.284 43.0349 27.976C43.1889 27.668 43.4036 27.43 43.6789 27.262C43.9589 27.094 44.2763 27.01 44.6309 27.01C45.0649 27.01 45.4009 27.1313 45.6389 27.374C45.8816 27.612 46.0099 27.955 46.0239 28.403C46.0239 28.6877 46.0076 28.9047 45.9749 29.054H43.5669C43.5763 29.516 43.6836 29.8893 43.8889 30.174C44.0943 30.454 44.3859 30.594 44.7639 30.594C44.9506 30.594 45.1443 30.5613 45.3449 30.496C45.5503 30.426 45.7089 30.3443 45.8209 30.251L45.9539 30.559C45.8186 30.699 45.6179 30.8203 45.3519 30.923C45.0859 31.0257 44.8153 31.077 44.5399 31.077ZM45.2539 28.683C45.2679 28.585 45.2749 28.4847 45.2749 28.382C45.2703 28.0787 45.2049 27.8407 45.0789 27.668C44.9576 27.4907 44.7639 27.402 44.4979 27.402C44.2273 27.402 44.0103 27.5 43.8469 27.696C43.6883 27.892 43.5973 28.221 43.5739 28.683H45.2539ZM47.2765 30.44C47.3232 30.51 47.4212 30.573 47.5705 30.629C47.7245 30.685 47.8855 30.713 48.0535 30.713C48.3195 30.713 48.5155 30.6617 48.6415 30.559C48.7675 30.4563 48.8305 30.314 48.8305 30.132C48.8305 30.006 48.7909 29.8963 48.7115 29.803C48.6322 29.7097 48.5202 29.628 48.3755 29.558C48.2355 29.4833 48.0325 29.3947 47.7665 29.292C47.4072 29.1567 47.1435 28.9957 46.9755 28.809C46.8122 28.6177 46.7305 28.368 46.7305 28.06C46.7305 27.8547 46.7912 27.675 46.9125 27.521C47.0385 27.367 47.2089 27.248 47.4235 27.164C47.6429 27.0753 47.8855 27.031 48.1515 27.031C48.3662 27.031 48.5529 27.0473 48.7115 27.08C48.8749 27.1127 49.0055 27.1453 49.1035 27.178C49.2015 27.2107 49.2669 27.2317 49.2995 27.241V28.109H48.8725L48.7325 27.591C48.7045 27.535 48.6299 27.4883 48.5085 27.451C48.3872 27.409 48.2519 27.388 48.1025 27.388C47.8925 27.388 47.7222 27.4347 47.5915 27.528C47.4655 27.6213 47.4025 27.7473 47.4025 27.906C47.4025 28.046 47.4352 28.1627 47.5005 28.256C47.5705 28.3447 47.6569 28.417 47.7595 28.473C47.8622 28.529 48.0022 28.5943 48.1795 28.669L48.3195 28.725C48.5809 28.8277 48.7932 28.9257 48.9565 29.019C49.1199 29.1123 49.2552 29.236 49.3625 29.39C49.4745 29.5393 49.5305 29.7237 49.5305 29.943C49.5305 30.2883 49.3952 30.5637 49.1245 30.769C48.8585 30.9743 48.4922 31.077 48.0255 31.077C47.7969 31.077 47.5565 31.0467 47.3045 30.986C47.0572 30.9207 46.8542 30.8553 46.6955 30.79V29.894H47.1505L47.2765 30.44ZM50.8107 30.44C50.8574 30.51 50.9554 30.573 51.1047 30.629C51.2587 30.685 51.4197 30.713 51.5877 30.713C51.8537 30.713 52.0497 30.6617 52.1757 30.559C52.3017 30.4563 52.3647 30.314 52.3647 30.132C52.3647 30.006 52.3251 29.8963 52.2457 29.803C52.1664 29.7097 52.0544 29.628 51.9097 29.558C51.7697 29.4833 51.5667 29.3947 51.3007 29.292C50.9414 29.1567 50.6777 28.9957 50.5097 28.809C50.3464 28.6177 50.2647 28.368 50.2647 28.06C50.2647 27.8547 50.3254 27.675 50.4467 27.521C50.5727 27.367 50.7431 27.248 50.9577 27.164C51.1771 27.0753 51.4197 27.031 51.6857 27.031C51.9004 27.031 52.0871 27.0473 52.2457 27.08C52.4091 27.1127 52.5397 27.1453 52.6377 27.178C52.7357 27.2107 52.8011 27.2317 52.8337 27.241V28.109H52.4067L52.2667 27.591C52.2387 27.535 52.1641 27.4883 52.0427 27.451C51.9214 27.409 51.7861 27.388 51.6367 27.388C51.4267 27.388 51.2564 27.4347 51.1257 27.528C50.9997 27.6213 50.9367 27.7473 50.9367 27.906C50.9367 28.046 50.9694 28.1627 51.0347 28.256C51.1047 28.3447 51.1911 28.417 51.2937 28.473C51.3964 28.529 51.5364 28.5943 51.7137 28.669L51.8537 28.725C52.1151 28.8277 52.3274 28.9257 52.4907 29.019C52.6541 29.1123 52.7894 29.236 52.8967 29.39C53.0087 29.5393 53.0647 29.7237 53.0647 29.943C53.0647 30.2883 52.9294 30.5637 52.6587 30.769C52.3927 30.9743 52.0264 31.077 51.5597 31.077C51.3311 31.077 51.0907 31.0467 50.8387 30.986C50.5914 30.9207 50.3884 30.8553 50.2297 30.79V29.894H50.6847L50.8107 30.44Z" fill="black"/>
</svg>
