<svg width="23" height="23" viewBox="0 0 23 23" fill="none" xmlns="http://www.w3.org/2000/svg">
<g clip-path="url(#clip0)">
<path d="M1.05806 9.34891C2.16015 8.28252 3.94379 8.28584 5.0419 9.35634C6.14002 10.4268 6.13679 12.1591 5.03469 13.2255C3.93259 14.2919 2.14896 14.2886 1.05085 13.2181C-0.047268 12.1477 -0.0440396 10.4154 1.05806 9.34891Z" fill="#89C739"/>
<path d="M9.50911 9.36466C10.6112 8.29827 12.3948 8.30159 13.493 9.37209C14.5911 10.4426 14.5878 12.1749 13.4857 13.2413C12.3836 14.3077 10.6 14.3043 9.5019 13.2339C8.40378 12.1634 8.40701 10.4311 9.50911 9.36466" fill="#89C739"/>
<path d="M17.9601 9.38041C19.0622 8.31401 20.8458 8.31734 21.9439 9.38783C23.0421 10.4583 23.0388 12.1906 21.9367 13.257C20.8346 14.3234 19.051 14.3201 17.9529 13.2496C16.8548 12.1791 16.858 10.4468 17.9601 9.38041" fill="#89C739"/>
</g>
<defs>
<clipPath id="clip0">
<rect width="21.8875" height="22.5361" fill="white" transform="translate(0.208984 22.2258) rotate(-89.8932)"/>
</clipPath>
</defs>
</svg>
