<svg width="26" height="26" viewBox="0 0 26 26" fill="none" xmlns="http://www.w3.org/2000/svg">
<path d="M1.4705 17.0661L0.740323 17.2374L1.4705 17.0661ZM1.4705 8.93391L0.740323 8.76263L0.740323 8.76263L1.4705 8.93391ZM24.5295 8.93391L23.7993 9.10519L24.5295 8.93391ZM24.5295 17.0661L23.7993 16.8948L24.5295 17.0661ZM17.0661 24.5295L16.8948 23.7993L16.8948 23.7993L17.0661 24.5295ZM8.93391 24.5295L9.10519 23.7993L8.93391 24.5295ZM8.93391 1.4705L9.10519 2.20068L8.93391 1.4705ZM17.0661 1.4705L16.8948 2.20068L17.0661 1.4705ZM7.28869 9.00209C6.9958 8.7092 6.52093 8.7092 6.22803 9.00209C5.93514 9.29499 5.93514 9.76986 6.22803 10.0628L7.28869 9.00209ZM8.14539 10.9195L7.61506 11.4498C7.90796 11.7427 8.38283 11.7427 8.67572 11.4498L8.14539 10.9195ZM11.4498 8.67572C11.7427 8.38283 11.7427 7.90796 11.4498 7.61506C11.1569 7.32217 10.682 7.32217 10.3891 7.61506L11.4498 8.67572ZM14.387 9.47594C13.9728 9.47594 13.637 9.81173 13.637 10.2259C13.637 10.6402 13.9728 10.9759 14.387 10.9759V9.47594ZM19.2416 10.9759C19.6558 10.9759 19.9916 10.6402 19.9916 10.2259C19.9916 9.81173 19.6558 9.47594 19.2416 9.47594V10.9759ZM7.28869 15.9372C6.9958 15.6444 6.52093 15.6444 6.22803 15.9372C5.93514 16.2301 5.93514 16.705 6.22803 16.9979L7.28869 15.9372ZM8.14539 17.8546L7.61506 18.3849C7.90796 18.6778 8.38283 18.6778 8.67572 18.3849L8.14539 17.8546ZM11.4498 15.6109C11.7427 15.318 11.7427 14.8431 11.4498 14.5502C11.1569 14.2573 10.682 14.2573 10.3891 14.5502L11.4498 15.6109ZM14.387 16.4111C13.9728 16.4111 13.637 16.7469 13.637 17.1611C13.637 17.5753 13.9728 17.9111 14.387 17.9111V16.4111ZM19.2416 17.9111C19.6558 17.9111 19.9916 17.5753 19.9916 17.1611C19.9916 16.7469 19.6558 16.4111 19.2416 16.4111V17.9111ZM2.20068 16.8948C1.59977 14.333 1.59977 11.667 2.20068 9.10518L0.740323 8.76263C0.0865591 11.5497 0.0865591 14.4503 0.740323 17.2374L2.20068 16.8948ZM23.7993 9.10519C24.4002 11.667 24.4002 14.333 23.7993 16.8948L25.2597 17.2374C25.9134 14.4503 25.9134 11.5497 25.2597 8.76264L23.7993 9.10519ZM16.8948 23.7993C14.333 24.4002 11.667 24.4002 9.10519 23.7993L8.76264 25.2597C11.5497 25.9134 14.4503 25.9134 17.2374 25.2597L16.8948 23.7993ZM9.10519 2.20068C11.667 1.59977 14.333 1.59977 16.8948 2.20068L17.2374 0.740321C14.4503 0.0865593 11.5497 0.0865599 8.76263 0.740322L9.10519 2.20068ZM9.10519 23.7993C5.67928 22.9957 3.0043 20.3207 2.20068 16.8948L0.740323 17.2374C1.67403 21.2179 4.78208 24.326 8.76264 25.2597L9.10519 23.7993ZM17.2374 25.2597C21.2179 24.326 24.326 21.2179 25.2597 17.2374L23.7993 16.8948C22.9957 20.3207 20.3207 22.9957 16.8948 23.7993L17.2374 25.2597ZM16.8948 2.20068C20.3207 3.00429 22.9957 5.67928 23.7993 9.10519L25.2597 8.76264C24.326 4.78208 21.2179 1.67403 17.2374 0.740321L16.8948 2.20068ZM8.76263 0.740322C4.78208 1.67403 1.67403 4.78208 0.740323 8.76263L2.20068 9.10518C3.0043 5.67927 5.67928 3.00429 9.10519 2.20068L8.76263 0.740322ZM6.22803 10.0628L7.61506 11.4498L8.67572 10.3891L7.28869 9.00209L6.22803 10.0628ZM8.67572 11.4498L11.4498 8.67572L10.3891 7.61506L7.61506 10.3891L8.67572 11.4498ZM14.387 10.9759H19.2416V9.47594H14.387V10.9759ZM6.22803 16.9979L7.61506 18.3849L8.67572 17.3243L7.28869 15.9372L6.22803 16.9979ZM8.67572 18.3849L11.4498 15.6109L10.3891 14.5502L7.61506 17.3243L8.67572 18.3849ZM14.387 17.9111H19.2416V16.4111H14.387V17.9111Z" fill="#303F9F"/>
</svg>
