<svg width="28" height="26" viewBox="0 0 28 26" fill="none" xmlns="http://www.w3.org/2000/svg">
<path d="M3.4705 8.93391C4.33917 5.23067 7.23068 2.33916 10.9339 1.4705C13.6083 0.843166 16.3917 0.843166 19.0661 1.4705C22.7693 2.33916 25.6608 5.23068 26.5295 8.93391C27.1568 11.6083 27.1568 14.3917 26.5295 17.0661C25.6608 20.7693 22.7693 23.6608 19.0661 24.5295C16.3917 25.1568 13.6083 25.1568 10.9339 24.5295C7.23068 23.6608 4.33917 20.7693 3.4705 17.0661C2.84317 14.3917 2.84317 11.6083 3.4705 8.93391Z" stroke="#757575" stroke-width="1.5"/>
<rect y="3" width="10" height="20" fill="white"/>
<path d="M20.5 13L1 13M1 13L5.58823 17M1 13L5.58823 9" stroke="#757575" stroke-width="1.5" stroke-linecap="round" stroke-linejoin="round"/>
</svg>
