<svg width="26" height="26" viewBox="0 0 26 26" fill="none" xmlns="http://www.w3.org/2000/svg">
<path d="M1.4705 17.0661L0.740323 17.2374L1.4705 17.0661ZM1.4705 8.93391L0.740323 8.76263L0.740323 8.76263L1.4705 8.93391ZM24.5295 8.93391L23.7993 9.10519L24.5295 8.93391ZM24.5295 17.0661L23.7993 16.8948L24.5295 17.0661ZM17.0661 24.5295L16.8948 23.7993L16.8948 23.7993L17.0661 24.5295ZM8.93391 24.5295L9.10519 23.7993L8.93391 24.5295ZM8.93391 1.4705L9.10519 2.20068L8.93391 1.4705ZM17.0661 1.4705L16.8948 2.20068L17.0661 1.4705ZM8.08891 17.1611C8.08891 17.5753 8.42469 17.9111 8.83891 17.9111C9.25312 17.9111 9.58891 17.5753 9.58891 17.1611H8.08891ZM9.58891 11.613C9.58891 11.1988 9.25312 10.863 8.83891 10.863C8.42469 10.863 8.08891 11.1988 8.08891 11.613H9.58891ZM16.4111 17.1611C16.4111 17.5753 16.7469 17.9111 17.1611 17.9111C17.5753 17.9111 17.9111 17.5753 17.9111 17.1611H16.4111ZM17.9111 13C17.9111 12.5858 17.5753 12.25 17.1611 12.25C16.7469 12.25 16.4111 12.5858 16.4111 13H17.9111ZM12.25 15.7741C12.25 16.1883 12.5858 16.5241 13 16.5241C13.4142 16.5241 13.75 16.1883 13.75 15.7741H12.25ZM13.75 8.83891C13.75 8.4247 13.4142 8.08891 13 8.08891C12.5858 8.08891 12.25 8.4247 12.25 8.83891H13.75ZM2.20068 16.8948C1.59977 14.333 1.59977 11.667 2.20068 9.10518L0.740323 8.76263C0.0865591 11.5497 0.0865591 14.4503 0.740323 17.2374L2.20068 16.8948ZM23.7993 9.10519C24.4002 11.667 24.4002 14.333 23.7993 16.8948L25.2597 17.2374C25.9134 14.4503 25.9134 11.5497 25.2597 8.76264L23.7993 9.10519ZM16.8948 23.7993C14.333 24.4002 11.667 24.4002 9.10519 23.7993L8.76264 25.2597C11.5497 25.9134 14.4503 25.9134 17.2374 25.2597L16.8948 23.7993ZM9.10519 2.20068C11.667 1.59977 14.333 1.59977 16.8948 2.20068L17.2374 0.740321C14.4503 0.0865593 11.5497 0.0865599 8.76263 0.740322L9.10519 2.20068ZM9.10519 23.7993C5.67928 22.9957 3.0043 20.3207 2.20068 16.8948L0.740323 17.2374C1.67403 21.2179 4.78208 24.326 8.76264 25.2597L9.10519 23.7993ZM17.2374 25.2597C21.2179 24.326 24.326 21.2179 25.2597 17.2374L23.7993 16.8948C22.9957 20.3207 20.3207 22.9957 16.8948 23.7993L17.2374 25.2597ZM16.8948 2.20068C20.3207 3.00429 22.9957 5.67928 23.7993 9.10519L25.2597 8.76264C24.326 4.78208 21.2179 1.67403 17.2374 0.740321L16.8948 2.20068ZM8.76263 0.740322C4.78208 1.67403 1.67403 4.78208 0.740323 8.76263L2.20068 9.10518C3.0043 5.67927 5.67928 3.00429 9.10519 2.20068L8.76263 0.740322ZM9.58891 17.1611V11.613H8.08891V17.1611H9.58891ZM17.9111 17.1611V13H16.4111V17.1611H17.9111ZM13.75 15.7741V8.83891H12.25V15.7741H13.75Z" fill="#757575"/>
</svg>
