<svg xmlns="http://www.w3.org/2000/svg" width="25.221" height="29.957" viewBox="0 0 25.221 29.957"><defs><style>.a{fill:#b784d8;}</style></defs><g transform="translate(-90.308 -154.765) rotate(-13)"><path class="a" d="M66.438,258.527,52.683,272.283a.55.55,0,0,0-.143.251l-1.525,6.12a.541.541,0,0,0,.525.673.538.538,0,0,0,.131-.016l6.12-1.525a.54.54,0,0,0,.251-.143L71.8,263.888Zm0,0" transform="translate(0 -77.971)"/><path class="a" d="M392.228,178.68l-1.531-1.531a2.773,2.773,0,0,0-3.829,0l-1.876,1.876,5.36,5.36,1.876-1.876a2.708,2.708,0,0,0,0-3.829Zm0,0" transform="translate(-317.022)"/></g></svg>