<svg xmlns="http://www.w3.org/2000/svg" width="5.582" height="25" viewBox="0 0 5.582 25"><defs><style>.a{fill:#b784d8;}</style></defs><g transform="translate(-276.18 -352.086)"><path class="a" d="M278.313,352.162a2.919,2.919,0,0,0-2.133,2.922c.066.846.121,1.7.188,2.547.188,3.221.376,6.379.564,9.6A2,2,0,0,0,279,369.114a2.036,2.036,0,0,0,2.066-1.948,19.192,19.192,0,0,1,.066-1.948c.121-2.065.254-4.131.376-6.2.066-1.338.188-2.676.254-4.013a3.214,3.214,0,0,0-.254-1.338,2.8,2.8,0,0,0-3.194-1.509Zm0,0"/><path class="a" d="M279.34,493.05a2.978,2.978,0,0,0,0,5.94,2.984,2.984,0,0,0,0-5.94Zm0,0" transform="translate(-0.342 -121.904)"/></g></svg>