<svg xmlns="http://www.w3.org/2000/svg" xmlns:xlink="http://www.w3.org/1999/xlink" viewBox="0 0 340 150"><defs><style>.cls-1{fill-rule:evenodd;fill:url(#linear-gradient);}.cls-2{fill:#fff;}</style><linearGradient id="linear-gradient" x1="36.97" y1="100.4" x2="36.97" y2="38.02" gradientUnits="userSpaceOnUse"><stop offset="0" stop-color="#fff" stop-opacity="0.5"/><stop offset="0" stop-color="#fff" stop-opacity="0.5"/><stop offset="0.15" stop-color="#fff" stop-opacity="0.65"/><stop offset="0.3" stop-color="#fff" stop-opacity="0.78"/><stop offset="0.46" stop-color="#fff" stop-opacity="0.88"/><stop offset="0.62" stop-color="#fff" stop-opacity="0.95"/><stop offset="0.8" stop-color="#fff" stop-opacity="0.99"/><stop offset="1" stop-color="#fff"/></linearGradient></defs><g id="Logos"><path class="cls-1" d="M60.75,38H13.19a7.41,7.41,0,0,0-7.41,7.41V93a7.41,7.41,0,0,0,7.41,7.41H60.75A7.41,7.41,0,0,0,68.16,93V45.43A7.41,7.41,0,0,0,60.75,38ZM32.65,83a2.47,2.47,0,0,1-2.46,2.47H19.76A2.48,2.48,0,0,1,17.29,83V52a2.48,2.48,0,0,1,2.47-2.47H30.19A2.47,2.47,0,0,1,32.65,52Zm24-14.21a2.48,2.48,0,0,1-2.47,2.47H43.75a2.47,2.47,0,0,1-2.46-2.47V52a2.47,2.47,0,0,1,2.46-2.47H54.18A2.48,2.48,0,0,1,56.65,52Z"/><path class="cls-2" d="M135.08,42.59V54.65h-14.3V100.4H107V54.65H92.72V42.59Z"/><path class="cls-2" d="M152.62,100.4H139.88v-45h12.74v8.62c2.41-6.07,6.28-9.67,13.17-9.23V68.11c-8.95-.7-13.17,1.5-13.17,8.71Z"/><path class="cls-2" d="M235.4,100.76c-8.35,0-13.61-4.05-13.61-13.47V38h12.83V85.53c0,2.73,1.81,3.7,4,3.7a13.86,13.86,0,0,0,1.89-.09v11.09A18.53,18.53,0,0,1,235.4,100.76Z"/><path class="cls-2" d="M262.17,100.76c-8.35,0-13.6-4.05-13.6-13.47V38H261.4V85.53c0,2.73,1.81,3.7,4,3.7a14.08,14.08,0,0,0,1.9-.09v11.09A18.56,18.56,0,0,1,262.17,100.76Z"/><path class="cls-2" d="M273.47,77.88c0-13.9,8-23.41,21.78-23.41S316.86,64,316.86,77.88s-7.92,23.58-21.61,23.58S273.47,91.69,273.47,77.88Zm12.48,0c0,6.78,2.84,12.14,9.3,12.14s9.13-5.36,9.13-12.14-2.76-12-9.13-12S286,71.1,286,77.88Z"/><path class="cls-2" d="M183,82a105.88,105.88,0,0,0,10.75.63c9.75,0,18-2.62,18-12.06,0-9.17-8.47-16.07-18.66-16.07-13.72,0-22.5,10-22.5,23.85,0,14.43,7.58,23,24.71,23a40.81,40.81,0,0,0,14.89-2.65V87.87c-4.39,1.4-9.35,2.8-14.43,2.8C188.9,90.67,184.18,88.43,183,82Zm9.83-17.68c3.61,0,6.51,2.45,6.51,5.8,0,4.32-4.56,5.66-9.79,5.66a44.69,44.69,0,0,1-6.66-.53,15.16,15.16,0,0,1,1.76-6A9.45,9.45,0,0,1,192.82,64.29Z"/></g></svg>